<svg xmlns="http://www.w3.org/2000/svg" viewBox="0 0 245 245" width="120" height="120">
  <path fill="#ededed" d="M185.8,232.75c9.45-10.21,14.43-20.71,10.61-35.01-3.06-11.43-16.92-24.07-17.7-32.75-.63-6.99,4.82-11.41,11.39-10.36,3.39.54,7.83,6.36,10.94,1.42,2.68-4.25-2.55-8.92-6.08-10.4-13.81-5.82-28.46,6.66-25.94,21.63,1.6,9.54,10.16,16.72,14.56,24.99,3.82,7.17,7.21,17.59.1,23.85l-.74-.57c-3.08-19.66-14.33-38.23-26.34-53.5-1.01-1.28-7.78-8.71-7.78-9.33,0-.46.35-.74.67-.99,1.18-.91,4.66-2.18,6.32-3.16,5.5-3.27,9.63-7.39,13.21-12.74,14.05,2.14,27.19-7.72,29.33-22.13,2.18-14.68-6.37-25.09-20.84-24.72-.71.02-1.89.65-2.27.03-4.48-29.93-33.71-44.47-61.11-38.79-17.89,3.71-32.53,17.11-37.76,35.12-1.66.48-3.3.38-5.04.82-5.22,1.33-9.45,6.28-10.86,11.48-2.74,10.11,1.79,21.25,11.35,25.29-.48,13.41,9.63,23,20.87,27.66.05.29.11.67-.03.91-.31.54-9.44,5.46-10.74,6.1-2.12,1.05-7.03,3.62-9.15,2.96-4.11-1.28-13.8-13.56-14.39-17.86-.35-2.55.49-5.15.62-7.63.17-3.33.54-12.69-4.38-12.16-2.65.28-2.93,3.72-3.57,5.68-.09.29-.12.93-.64.66-.43-.22-3.10-4.45-3.89-5.33-9.26-10.38-17.82-.52-16.66,10.78.72,6.98,6.47,13.72,12.06,17.24.79.5,2.74,1.1,3.15,1.51.69.68,3.03,6.49,3.82,7.97,3.61,6.79,10.03,15.86,17.07,19.08,5.63,2.58,11.55.6,17.02-1.51,1.22-.47,6.1-3.05,6.71-3.11.42-.04.49.17.75.45-6.25,17.06-10.31,35.22-8.09,53.58l2.76,14.82c-.36.56-.55.08-.96-.01-8.95-2.11-21.45-9.12-29.2-14.29C-4.7,190.53-17.92,106.22,25.83,48.42c49.53-65.43,145.86-64.24,194.47,1.67,42.04,57.01,29.09,139.38-28.69,179.14-.63.43-5.56,3.75-5.81,3.52Z"/>
</svg>